<?xml version="1.0" encoding="UTF-8" standalone="no"?>
<!DOCTYPE svg PUBLIC "-//W3C//DTD SVG 1.1//EN" "http://www.w3.org/Graphics/SVG/1.1/DTD/svg11.dtd">
<svg version="1.1" xmlns="http://www.w3.org/2000/svg" xmlns:xlink="http://www.w3.org/1999/xlink" preserveAspectRatio="xMidYMid meet" viewBox="0 0 443 551" width="443" height="551"><defs><path d="" id="g1pcGRf9Y"></path><path d="M107.1 72.54C107.1 94.62 89.18 112.54 67.1 112.54C45.03 112.54 27.1 94.62 27.1 72.54C27.1 50.46 45.03 32.54 67.1 32.54C89.18 32.54 107.1 50.46 107.1 72.54Z" id="bF1FKiytW"></path><text id="a5glskX8O" x="68.17" y="72.4" font-size="53" font-family="Open Sans" font-weight="normal" font-style="normal" letter-spacing="0" alignment-baseline="before-edge" transform="matrix(1 0 0 1 -16.39553135308293 -36.195236215662476)" style="line-height:100%" xml:space="preserve" dominant-baseline="text-before-edge"><tspan x="68.17" dy="0em" alignment-baseline="before-edge" dominant-baseline="text-before-edge" text-anchor="start">1</tspan></text><style id="opensansnormalnormal">
    @font-face {
    font-family: "Open Sans";
    font-weight: normal;
    }
    </style><path d="M121.46 151.05L88.85 108.88" id="d16hzvvlSL"></path><path d="M185.15 179.5C185.15 201.58 167.23 219.5 145.15 219.5C123.07 219.5 105.15 201.58 105.15 179.5C105.15 157.43 123.07 139.5 145.15 139.5C167.23 139.5 185.15 157.43 185.15 179.5Z" id="ajVd7jmCL"></path><text id="b3nqMcv4Io" x="68.17" y="72.4" font-size="53" font-family="Open Sans" font-weight="normal" font-style="normal" letter-spacing="0" alignment-baseline="before-edge" transform="matrix(1 0 0 1 61.650649819208354 70.76746360671763)" style="line-height:100%" xml:space="preserve" dominant-baseline="text-before-edge"><tspan x="68.17" dy="0em" alignment-baseline="before-edge" dominant-baseline="text-before-edge" text-anchor="start">2</tspan></text><path d="M199.5 258.01L166.89 215.84" id="bSZd491IS"></path><path d="M265.15 288.88C265.15 310.96 247.23 328.88 225.15 328.88C203.07 328.88 185.15 310.96 185.15 288.88C185.15 266.8 203.07 248.88 225.15 248.88C247.23 248.88 265.15 266.8 265.15 288.88Z" id="c3nv6bFsag"></path><text id="g2tB8hapBi" x="68.17" y="72.4" font-size="53" font-family="Open Sans" font-weight="normal" font-style="normal" letter-spacing="0" alignment-baseline="before-edge" transform="matrix(1 0 0 1 141.65064981920835 180.1457939797194)" style="line-height:100%" xml:space="preserve" dominant-baseline="text-before-edge"><tspan x="68.17" dy="0em" alignment-baseline="before-edge" dominant-baseline="text-before-edge" text-anchor="start">3</tspan></text><path d="M279.5 367.39L246.89 325.22" id="a1JE4XoBh7"></path><path d="M345.15 393.43C345.15 415.5 327.23 433.43 305.15 433.43C283.07 433.43 265.15 415.5 265.15 393.43C265.15 371.35 283.07 353.43 305.15 353.43C327.23 353.43 345.15 371.35 345.15 393.43Z" id="hhzt0vdxb"></path><text id="a6E4Icud86" x="68.17" y="72.4" font-size="53" font-family="Open Sans" font-weight="normal" font-style="normal" letter-spacing="0" alignment-baseline="before-edge" transform="matrix(1 0 0 1 221.65064981920838 284.6928632514778)" style="line-height:100%" xml:space="preserve" dominant-baseline="text-before-edge"><tspan x="68.17" dy="0em" alignment-baseline="before-edge" dominant-baseline="text-before-edge" text-anchor="start">4</tspan></text><path d="M359.5 471.94L326.89 429.77" id="c3UKQkmQb"></path><path d="M425.15 497.98C425.15 520.05 407.23 537.98 385.15 537.98C363.07 537.98 345.15 520.05 345.15 497.98C345.15 475.9 363.07 457.98 385.15 457.98C407.23 457.98 425.15 475.9 425.15 497.98Z" id="a4SQVYPUof"></path><text id="b3wq9Muzl0" x="68.17" y="72.4" font-size="53" font-family="Open Sans" font-weight="normal" font-style="normal" letter-spacing="0" alignment-baseline="before-edge" transform="matrix(1 0 0 1 301.6506498192084 389.2399325232362)" style="line-height:100%" xml:space="preserve" dominant-baseline="text-before-edge"><tspan x="68.17" dy="0em" alignment-baseline="before-edge" dominant-baseline="text-before-edge" text-anchor="start">5</tspan></text></defs><g><g><g><g><use xlink:href="#g1pcGRf9Y" opacity="1" fill-opacity="0" stroke="#33321a" stroke-width="1" stroke-opacity="1"></use></g></g><g><use xlink:href="#bF1FKiytW" opacity="1" fill="#ffffff" fill-opacity="1"></use><g><use xlink:href="#bF1FKiytW" opacity="1" fill-opacity="0" stroke="#000000" stroke-width="1" stroke-opacity="1"></use></g></g><g id="c18i7Tj8sQ"><use xlink:href="#a5glskX8O" opacity="1" fill="#343c26" fill-opacity="1"></use></g><g><g><use xlink:href="#d16hzvvlSL" opacity="1" fill-opacity="0" stroke="#33321a" stroke-width="1" stroke-opacity="1"></use></g></g><g><use xlink:href="#ajVd7jmCL" opacity="1" fill="#ffffff" fill-opacity="1"></use><g><use xlink:href="#ajVd7jmCL" opacity="1" fill-opacity="0" stroke="#000000" stroke-width="1" stroke-opacity="1"></use></g></g><g id="d1alYlfo1Q"><use xlink:href="#b3nqMcv4Io" opacity="1" fill="#343c26" fill-opacity="1"></use></g><g><g><use xlink:href="#bSZd491IS" opacity="1" fill-opacity="0" stroke="#33321a" stroke-width="1" stroke-opacity="1"></use></g></g><g><use xlink:href="#c3nv6bFsag" opacity="1" fill="#ffffff" fill-opacity="1"></use><g><use xlink:href="#c3nv6bFsag" opacity="1" fill-opacity="0" stroke="#000000" stroke-width="1" stroke-opacity="1"></use></g></g><g id="bEqQSZBoH"><use xlink:href="#g2tB8hapBi" opacity="1" fill="#343c26" fill-opacity="1"></use></g><g><g><use xlink:href="#a1JE4XoBh7" opacity="1" fill-opacity="0" stroke="#33321a" stroke-width="1" stroke-opacity="1"></use></g></g><g><use xlink:href="#hhzt0vdxb" opacity="1" fill="#ffffff" fill-opacity="1"></use><g><use xlink:href="#hhzt0vdxb" opacity="1" fill-opacity="0" stroke="#000000" stroke-width="1" stroke-opacity="1"></use></g></g><g id="a9pzuwgSw"><use xlink:href="#a6E4Icud86" opacity="1" fill="#343c26" fill-opacity="1"></use></g><g><g><use xlink:href="#c3UKQkmQb" opacity="1" fill-opacity="0" stroke="#33321a" stroke-width="1" stroke-opacity="1"></use></g></g><g><use xlink:href="#a4SQVYPUof" opacity="1" fill="#ffffff" fill-opacity="1"></use><g><use xlink:href="#a4SQVYPUof" opacity="1" fill-opacity="0" stroke="#000000" stroke-width="1" stroke-opacity="1"></use></g></g><g id="bkqMz5RoO"><use xlink:href="#b3wq9Muzl0" opacity="1" fill="#343c26" fill-opacity="1"></use></g></g></g></svg>
